<svg xmlns="http://www.w3.org/2000/svg" width="188.461" height="54"><defs
  ><clipPath id="a"><path fill="none" d="M0 0h188.461v54H0z" /></clipPath><style
    >.d{fill:#4295b7}</style></defs><g clip-path="url(#a)"><path
      d="M0 52.267l2.717-28.943A1.124 1.124 0 013.935 22.2h1.967a1.358 1.358 0 011.405.937l10.959 25.337 10.959-25.338a1.358 1.358 0 011.405-.937h1.967a1.124 1.124 0 011.218 1.124l2.72 28.944a1.03 1.03 0 01-1.171 1.265h-1.129a1.171 1.171 0 01-1.31-1.127l-2.2-25.056-10.726 24.825a1.358 1.358 0 01-1.358.937h-.8a1.405 1.405 0 01-1.405-.937L5.761 27.351 3.607 52.405a1.171 1.171 0 01-1.312 1.127H1.171A1.03 1.03 0 010 52.267m41.964-14.424a16.252 16.252 0 1116.251 16.155 16.252 16.252 0 01-16.251-16.155m28.9 0a12.627 12.627 0 10-12.645 12.973 12.756 12.756 0 0012.645-12.973m10.352 14.471V23.371a1.124 1.124 0 011.218-1.218h8.571c9.6 0 15.877 7.025 15.877 15.643S100.601 53.438 91 53.438h-8.571a1.124 1.124 0 01-1.218-1.218m9.788-1.686c7.4 0 12.271-5.714 12.271-12.739S98.399 25.058 91 25.058h-6.229v25.524zm22.673 1.78V23.371a1.124 1.124 0 011.218-1.218h1.124a1.124 1.124 0 011.218 1.218v28.9a1.124 1.124 0 01-1.218 1.218h-1.124a1.124 1.124 0 01-1.218-1.221m20.088.234l-10.3-28.945c-.281-.843.094-1.405.937-1.405h1.163a1.358 1.358 0 011.4.984l9 26.04 8.945-25.993a1.265 1.265 0 011.358-.984h1.171c.843 0 1.265.515.984 1.405l-10.35 28.944a1.265 1.265 0 01-1.405.984h-1.546a1.264 1.264 0 01-1.358-.984"
      fill="#3f474e"
    /><path
      class="d"
      d="M158.113 53.626a1.452 1.452 0 01-1.452-1.452V40.84a1.452 1.452 0 012.9 0v11.334a1.452 1.452 0 01-1.452 1.452"
    /><path
      d="M165.325 48.287a1.452 1.452 0 01-1.452-1.452V25.619a1.452 1.452 0 012.9 0v21.216a1.452 1.452 0 01-1.452 1.452"
      fill="#f37322"
    /><path
      d="M172.538 53.626a1.452 1.452 0 01-1.452-1.452V8.337a1.452 1.452 0 112.9 0v43.837a1.452 1.452 0 01-1.452 1.452"
      fill="#7acbf2"
    /><path
      d="M179.75 36.25a1.452 1.452 0 01-1.452-1.45V1.452a1.452 1.452 0 112.9 0V34.8a1.452 1.452 0 01-1.452 1.452"
      fill="#b6b7ac"
    /><path
      class="d"
      d="M187.01 29.928a1.452 1.452 0 01-1.452-1.452V13.161a1.452 1.452 0 112.9 0v15.315a1.452 1.452 0 01-1.452 1.452"
    /></g></svg>
